<?xml version="1.0" encoding="utf-8"?>
<!-- Generator: Adobe Illustrator 22.1.0, SVG Export Plug-In . SVG Version: 6.00 Build 0)  -->
<svg version="1.1" id="Capa_1" xmlns="http://www.w3.org/2000/svg" xmlns:xlink="http://www.w3.org/1999/xlink" x="0px" y="0px"
	 viewBox="0 0 34 42.6" style="enable-background:new 0 0 34 42.6;" xml:space="preserve">
<style type="text/css">
	.st0{fill:#F29203;}
</style>
<g>
	<path class="st0" d="M30.4,9.8l-4.3-4.6c-1-1-2.8-1.8-4.1-1.8H8.7c-1.3,0-2.5,1.1-2.5,2.6v3.9H3.3c-0.8,0-1.4,0.6-1.4,1.4v4.5
		c0,0.8,0.6,1.4,1.4,1.4h2.9v16.5c0,1.5,1.1,2.6,2.5,2.6h3.5v-2.1H8.7c-0.3,0-0.5-0.2-0.5-0.5V17.2h8.6c0.8,0,1.4-0.6,1.4-1.4v-4.5
		c0-0.8-0.6-1.4-1.4-1.4H8.2V6.1c0-0.3,0.2-0.5,0.5-0.5h13.2c0.2,0,0.3,0,0.5,0v8.2H30c0,0.2,0,0.3,0,0.5v19.5
		c0,0.3-0.2,0.5-0.5,0.5H26v2.1h3.5c1.3,0,2.5-1.1,2.5-2.6V14.2C32,12.8,31.2,10.8,30.4,9.8z M4.8,15c0.2,0.3,0.6,0.5,1.1,0.5
		c0.4,0,0.8-0.1,1.3-0.3v0.7c-0.3,0.2-0.7,0.3-1.2,0.3c-0.7,0-1.3-0.2-1.7-0.7c-0.4-0.4-0.6-1.1-0.6-1.9c0-0.8,0.2-1.5,0.6-1.9
		c0.4-0.4,1-0.7,1.7-0.7c0.2,0,0.5,0,0.7,0.1c0.2,0.1,0.4,0.1,0.6,0.2L7,11.9c-0.2-0.1-0.3-0.1-0.5-0.2c-0.2,0-0.4-0.1-0.5-0.1
		c-1,0-1.5,0.6-1.5,1.9C4.4,14.2,4.5,14.7,4.8,15z M12.7,11.1l1.1,2.9c0.2,0.7,0.4,1.1,0.4,1.3h0c0-0.2,0.1-0.5,0.3-1
		c0.2-0.5,0.6-1.6,1.2-3.3h0.8L14.6,16h-0.9l-1.9-4.9H12.7z M8.5,11.4C8.8,11.2,9.2,11,9.8,11c0.5,0,1,0.1,1.5,0.3L11.1,12
		c-0.5-0.2-0.9-0.3-1.3-0.3c-0.4,0-0.6,0.1-0.8,0.2c-0.2,0.1-0.3,0.3-0.3,0.5c0,0.1,0,0.2,0.1,0.3c0.1,0.1,0.2,0.2,0.3,0.3
		c0.1,0.1,0.4,0.2,0.9,0.4c0.6,0.2,1,0.4,1.2,0.6c0.2,0.2,0.3,0.5,0.3,0.8c0,0.5-0.2,0.8-0.5,1.1c-0.3,0.2-0.8,0.4-1.4,0.4
		c-0.7,0-1.2-0.1-1.5-0.3v-0.7c0.2,0.1,0.5,0.2,0.8,0.3c0.3,0.1,0.5,0.1,0.8,0.1c0.4,0,0.7-0.1,0.9-0.2c0.2-0.1,0.3-0.3,0.3-0.6
		c0-0.2-0.1-0.4-0.2-0.5c-0.2-0.1-0.5-0.3-1-0.5c-0.5-0.2-0.8-0.3-1-0.4c-0.2-0.1-0.3-0.3-0.4-0.4C8,12.7,8,12.6,8,12.3
		C8,11.9,8.1,11.6,8.5,11.4z M24.3,11.6V6.4c0.2,0.2,4.6,4.9,4.6,4.9c0.2,0.2,0.2,0.2,0.3,0.3H24.3z"/>
	<path class="st0" d="M23.4,33.9h-2.1c0-0.1,0-0.1,0-0.2v-6.8c0-0.8-0.6-1.4-1.4-1.4h-1.5c-0.8,0-1.4,0.6-1.4,1.4v6.8
		c0,0.1,0,0.1,0,0.2H15c-0.5,0-0.7,0.3-0.3,0.7l3.8,4.2c0.4,0.4,1,0.4,1.3,0l3.8-4.2C24.1,34.2,23.9,33.9,23.4,33.9z"/>
</g>
</svg>
